<svg xmlns="http://www.w3.org/2000/svg" width="130.856" height="140.822" viewBox="0 0 130.856 140.822">
    <g id="layer1" transform="translate(-397.193 -368.796)">
        <path id="path3865" d="M413.63,487.65c-1.08,21.79,33.58,20.845,51.854,21.29,17.684.431,51.631,2.962,50.843-18.141-.8-21.447-19.984-17.526-29.355-26.831-3.753-3.726-5.82-9.257-10.742-11.594a28.734,28.734,0,0,0-19.717-1.64c-6.731,2.027-10.674,8.507-15.856,12.915-9.2,7.821-26.153,6.357-27.027,24Z" fill="#01bd56" stroke="#01bd56" strokeWidth="0.851"/>
        <path id="path3867" d="M516.89,418.13c-9.762-5.949-23.013,8-23.413,18.965-.424,11.594,12.432,31.826,22.961,29.248,14.524-3.557,14.7-39.533.452-48.213Z" fill="#01bd56" stroke="#01bd56" strokeWidth="1.191"/>
        <path id="path3869" d="M403.94,463.79c12.576,9.583,24.971-.577,28.052-12.914,3.611-14.456-5.53-28.993-17.386-32.611-15.391-4.7-22.946,36.167-10.667,45.525Z" fill="#01bd56" stroke="#01bd56" strokeWidth="1.206"/>
        <path id="path3871" d="M468.32,382.73c-5.365,12.85-5.247,36.256,7.58,39.74,10.828,2.941,23.66-11.483,26.027-21.8,2.632-11.48-3.731-28.808-16.279-31.005-7.177-1.256-14.693,6.759-17.328,13.07Z" fill="#01bd56" stroke="#01bd56" strokeWidth="1.446"/>
        <path id="path3873" d="M455.4,387.73c4.981,11.7,5.526,32.245-6.268,37.085-10.624,4.36-25.169-9.321-28.251-19.495-3.4-11.237,2.043-29.577,14.885-32.337,8.36-1.8,16.616,7.657,19.634,14.747Z" fill="#01bd56" stroke="#01bd56" strokeWidth="1.376"/>
    </g>
</svg>